<svg width="244" height="60" viewBox="0 0 288 60" fill="none" xmlns="http://www.w3.org/2000/svg">
<mask id="path-1-inside-1_226_10024" fill="white">
<path fill-rule="evenodd" clip-rule="evenodd" d="M0 0H116L121.612 6H165.388L171 0H288V13L285 16.4694V43.5306L288 47V60H171L165.388 54H121.612L116 60H0V47L3 43.5306V16.4694L0 13V0Z"/>
</mask>
<path fill-rule="evenodd" clip-rule="evenodd" d="M0 0H116L121.612 6H165.388L171 0H288V13L285 16.4694V43.5306L288 47V60H171L165.388 54H121.612L116 60H0V47L3 43.5306V16.4694L0 13V0Z" fill="url(#paint0_linear_226_10024)"/>
<path d="M116 0L116.73 -0.683114L116.434 -1H116V0ZM0 0V-1H-1V0H0ZM121.612 6L120.882 6.68311L121.178 7H121.612V6ZM165.388 6V7H165.822L166.118 6.68311L165.388 6ZM171 0V-1H170.566L170.27 -0.683114L171 0ZM288 0H289V-1H288V0ZM288 13L288.756 13.6541L289 13.3724V13H288ZM285 16.4694L284.244 15.8153L284 16.097V16.4694H285ZM285 43.5306H284V43.903L284.244 44.1847L285 43.5306ZM288 47H289V46.6276L288.756 46.3459L288 47ZM288 60V61H289V60H288ZM171 60L170.27 60.6831L170.566 61H171V60ZM165.388 54L166.118 53.3169L165.822 53H165.388V54ZM121.612 54V53H121.178L120.882 53.3169L121.612 54ZM116 60V61H116.434L116.73 60.6831L116 60ZM0 60H-1V61H0V60ZM0 47L-0.756423 46.3459L-1 46.6276V47H0ZM3 43.5306L3.75642 44.1847L4 43.903V43.5306H3ZM3 16.4694H4V16.097L3.75642 15.8153L3 16.4694ZM0 13H-1V13.3724L-0.756423 13.6541L0 13ZM116 -1H0V1H116V-1ZM122.343 5.31689L116.73 -0.683114L115.27 0.683114L120.882 6.68311L122.343 5.31689ZM165.388 5H121.612V7H165.388V5ZM170.27 -0.683114L164.657 5.31689L166.118 6.68311L171.73 0.683114L170.27 -0.683114ZM288 -1H171V1H288V-1ZM289 13V0H287V13H289ZM285.756 17.1235L288.756 13.6541L287.244 12.3459L284.244 15.8153L285.756 17.1235ZM286 43.5306V16.4694H284V43.5306H286ZM288.756 46.3459L285.756 42.8765L284.244 44.1847L287.244 47.6541L288.756 46.3459ZM289 60V47H287V60H289ZM171 61H288V59H171V61ZM164.657 54.6831L170.27 60.6831L171.73 59.3169L166.118 53.3169L164.657 54.6831ZM121.612 55H165.388V53H121.612V55ZM116.73 60.6831L122.343 54.6831L120.882 53.3169L115.27 59.3169L116.73 60.6831ZM0 61H116V59H0V61ZM-1 47V60H1V47H-1ZM2.24358 42.8765L-0.756423 46.3459L0.756423 47.6541L3.75642 44.1847L2.24358 42.8765ZM2 16.4694V43.5306H4V16.4694H2ZM-0.756423 13.6541L2.24358 17.1235L3.75642 15.8153L0.756423 12.3459L-0.756423 13.6541ZM-1 0V13H1V0H-1Z" fill="url(#paint1_linear_226_10024)" mask="url(#path-1-inside-1_226_10024)"/>


<defs>
<linearGradient id="paint0_linear_226_10024" x1="144" y1="0" x2="144" y2="60" gradientUnits="userSpaceOnUse">
<stop stop-color="#EC2C43" stop-opacity="0.23"/>
<stop offset="1" stop-color="#EC2C43" stop-opacity="0.7"/>
</linearGradient>
<linearGradient id="paint1_linear_226_10024" x1="144" y1="60" x2="144" y2="-9.29832e-07" gradientUnits="userSpaceOnUse">
<stop stop-color="#FC445A"/>
<stop offset="1" stop-color="#FC445A" stop-opacity="0.1"/>
</linearGradient>
</defs>
</svg>
