<?xml version="1.0" encoding="UTF-8"?>
<svg width="59" height="69" viewBox="0 0 59 69" fill="none" xmlns="http://www.w3.org/2000/svg">
<rect x="1.5" y="18.6055" width="56" height="48.8947" rx="9.5" stroke="url(#paint0_linear_645_2305)" stroke-width="3"/>
<path fill-rule="evenodd" clip-rule="evenodd" d="M27.7358 10C27.7358 13.5609 24.3975 17 19.5593 17C14.721 17 11.3828 13.5609 11.3828 10C11.3828 6.43908 14.721 3 19.5593 3C24.3975 3 27.7358 6.43908 27.7358 10ZM29.448 14.6645C27.5745 17.8375 23.8491 20 19.5593 20C13.3867 20 8.38281 15.5228 8.38281 10C8.38281 4.47715 13.3867 0 19.5593 0C23.8491 0 27.5745 2.16246 29.448 5.33552C31.3214 2.16246 35.0468 0 39.3366 0C45.5092 0 50.5131 4.47715 50.5131 10C50.5131 15.5228 45.5092 20 39.3366 20C35.0468 20 31.3214 17.8375 29.448 14.6645ZM47.5131 10C47.5131 13.5609 44.1749 17 39.3366 17C34.4984 17 31.1602 13.5609 31.1602 10C31.1602 6.43908 34.4984 3 39.3366 3C44.1749 3 47.5131 6.43908 47.5131 10Z" fill="#00D1FF"/>
<line y1="-2" x2="18.1038" y2="-2" transform="matrix(-0.524579 0.851362 -0.896827 -0.442381 27.4961 13)" stroke="#00D1FF" stroke-width="4"/>
<line y1="-2" x2="18.1038" y2="-2" transform="matrix(0.524579 0.851362 0.896827 -0.442381 31 13)" stroke="#00D1FF" stroke-width="4"/>
<defs>
<linearGradient id="paint0_linear_645_2305" x1="29.9539" y1="21.8958" x2="28.0017" y2="67.7582" gradientUnits="userSpaceOnUse">
<stop stop-color="#22C8FC"/>
<stop offset="1" stop-color="#A5209F"/>
</linearGradient>
</defs>
</svg>
