<?xml version="1.0" encoding="UTF-8"?>
<svg width="66" height="54" viewBox="0 0 66 54" fill="none" xmlns="http://www.w3.org/2000/svg">
<line x1="10.8008" y1="12.2002" x2="51.6008" y2="12.2002" stroke="url(#paint0_linear_645_2361)" stroke-width="2"/>
<line x1="10.8008" y1="20.6001" x2="51.6008" y2="20.6001" stroke="url(#paint1_linear_645_2361)" stroke-width="2"/>
<line x1="10.8008" y1="27.7998" x2="43.2008" y2="27.7998" stroke="url(#paint2_linear_645_2361)" stroke-width="2"/>
<path fill-rule="evenodd" clip-rule="evenodd" d="M3 2H63C63.5523 2 64 2.44772 64 3V40.2C64 40.7523 63.5523 41.2 63 41.2H27.6V43.1998H10.8V41.2H3C2.44772 41.2 2 40.7523 2 40.2V3C2 2.44772 2.44772 2 3 2ZM0 3C0 1.34315 1.34315 0 3 0H63C64.6569 0 66 1.34315 66 3V40.2C66 41.8568 64.6569 43.2 63 43.2H3C1.34315 43.2 0 41.8569 0 40.2V3Z" fill="url(#paint3_linear_645_2361)"/>
<path fill-rule="evenodd" clip-rule="evenodd" d="M10.1837 42.9839H4.80078V40.9839H10.907H11.6386L11.86 41.6811L11.8601 41.6812L11.8601 41.6813L11.8605 41.6824L11.8621 41.6877L11.8692 41.7098L11.8979 41.7986C11.9234 41.877 11.9613 41.9928 12.0105 42.1407C12.109 42.4366 12.2527 42.8605 12.4325 43.3696C12.7927 44.3895 13.2952 45.7437 13.8678 47.0933C14.4442 48.4518 15.0754 49.7666 15.6881 50.7275C15.9963 51.2108 16.2737 51.5627 16.5076 51.7824C16.6378 51.9047 16.7207 51.9548 16.7592 51.9744C16.8098 51.9551 16.945 51.8961 17.1785 51.7173C17.4975 51.473 17.8811 51.0976 18.3141 50.6049C19.1766 49.6237 20.1363 48.2921 21.0431 46.9298C21.9458 45.5736 22.7784 44.2141 23.3863 43.1916C23.6899 42.6809 23.9367 42.2556 24.1073 41.9586C24.1925 41.8101 24.2587 41.6937 24.3034 41.6148L24.3539 41.5252L24.3665 41.5028L24.3696 41.4974L24.3702 41.4962L24.3704 41.496L24.3704 41.496L24.6566 40.9839H25.2433H34.8008V42.9839H25.8248C25.6508 43.2866 25.4051 43.7096 25.1054 44.2137C24.4871 45.2536 23.6358 46.6441 22.708 48.038C21.7843 49.4257 20.7668 50.8441 19.8163 51.9253C19.3429 52.464 18.8611 52.9479 18.3946 53.3051C17.9655 53.6338 17.3874 53.9839 16.7477 53.9839C16.0711 53.9839 15.5216 53.6003 15.1382 53.24C14.7318 52.8582 14.3512 52.3508 14.0018 51.8028C13.2994 50.7012 12.6171 49.266 12.0267 47.8745C11.4325 46.474 10.9149 45.0783 10.5466 44.0357C10.4013 43.6242 10.2789 43.2666 10.1837 42.9839Z" fill="url(#paint4_linear_645_2361)"/>
<defs>
<linearGradient id="paint0_linear_645_2361" x1="10.8008" y1="13.2002" x2="53.4008" y2="13.2002" gradientUnits="userSpaceOnUse">
<stop stop-color="#22C8FC"/>
<stop offset="1" stop-color="#A4219F"/>
</linearGradient>
<linearGradient id="paint1_linear_645_2361" x1="10.8008" y1="21.6001" x2="53.4008" y2="21.6001" gradientUnits="userSpaceOnUse">
<stop stop-color="#22C8FC"/>
<stop offset="1" stop-color="#A4219F"/>
</linearGradient>
<linearGradient id="paint2_linear_645_2361" x1="10.8008" y1="28.7998" x2="44.6302" y2="28.7998" gradientUnits="userSpaceOnUse">
<stop stop-color="#22C8FC"/>
<stop offset="1" stop-color="#A4219F"/>
</linearGradient>
<linearGradient id="paint3_linear_645_2361" x1="0" y1="21.6" x2="66" y2="21.6" gradientUnits="userSpaceOnUse">
<stop stop-color="#22C8FC"/>
<stop offset="1" stop-color="#A5209F"/>
</linearGradient>
<linearGradient id="paint4_linear_645_2361" x1="4.80078" y1="50.145" x2="41.619" y2="50.145" gradientUnits="userSpaceOnUse">
<stop stop-color="#2ABDF6"/>
<stop offset="1" stop-color="#745EC1"/>
</linearGradient>
</defs>
</svg>
