<svg width="357" height="66" viewBox="0 0 357 66" fill="none" xmlns="http://www.w3.org/2000/svg">
<mask id="path-1-inside-1_392_3898" fill="white">
<path fill-rule="evenodd" clip-rule="evenodd" d="M201 0H357V21L352 23.0833V43.9167L357 46V66H201L198.917 61H148.083L146 66H0V46L5 43.9167V23.0833L0 21V0H146L148.083 5H198.917L201 0Z"/>
</mask>
<path fill-rule="evenodd" clip-rule="evenodd" d="M201 0H357V21L352 23.0833V43.9167L357 46V66H201L198.917 61H148.083L146 66H0V46L5 43.9167V23.0833L0 21V0H146L148.083 5H198.917L201 0Z" fill="url(#paint0_linear_392_3898)"/>
<path d="M357 0H358V-1H357V0ZM201 0V-1H200.333L200.077 -0.384615L201 0ZM357 21L357.385 21.9231L358 21.6667V21H357ZM352 23.0833L351.615 22.1603L351 22.4167V23.0833H352ZM352 43.9167H351V44.5833L351.615 44.8397L352 43.9167ZM357 46H358V45.3333L357.385 45.0769L357 46ZM357 66V67H358V66H357ZM201 66L200.077 66.3846L200.333 67H201V66ZM198.917 61L199.84 60.6154L199.583 60H198.917V61ZM148.083 61V60H147.417L147.16 60.6154L148.083 61ZM146 66V67H146.667L146.923 66.3846L146 66ZM0 66H-1V67H0V66ZM0 46L-0.384616 45.0769L-1 45.3333V46H0ZM5 43.9167L5.38462 44.8397L6 44.5833V43.9167H5ZM5 23.0833H6V22.4167L5.38462 22.1603L5 23.0833ZM0 21H-1V21.6667L-0.384615 21.9231L0 21ZM0 0V-1H-1V0H0ZM146 0L146.923 -0.384617L146.667 -1H146V0ZM148.083 5L147.16 5.38462L147.417 6H148.083V5ZM198.917 5V6H199.583L199.84 5.38461L198.917 5ZM357 -1H201V1H357V-1ZM358 21V0H356V21H358ZM352.385 24.0064L357.385 21.9231L356.615 20.0769L351.615 22.1603L352.385 24.0064ZM353 43.9167V23.0833H351V43.9167H353ZM357.385 45.0769L352.385 42.9936L351.615 44.8397L356.615 46.9231L357.385 45.0769ZM358 66V46H356V66H358ZM201 67H357V65H201V67ZM197.994 61.3846L200.077 66.3846L201.923 65.6154L199.84 60.6154L197.994 61.3846ZM148.083 62H198.917V60H148.083V62ZM146.923 66.3846L149.006 61.3846L147.16 60.6154L145.077 65.6154L146.923 66.3846ZM0 67H146V65H0V67ZM-1 46V66H1V46H-1ZM4.61538 42.9936L-0.384616 45.0769L0.384616 46.9231L5.38462 44.8397L4.61538 42.9936ZM4 23.0833V43.9167H6V23.0833H4ZM-0.384615 21.9231L4.61538 24.0064L5.38462 22.1603L0.384615 20.0769L-0.384615 21.9231ZM-1 0V21H1V0H-1ZM146 -1H0V1H146V-1ZM149.006 4.61538L146.923 -0.384617L145.077 0.384617L147.16 5.38462L149.006 4.61538ZM198.917 4H148.083V6H198.917V4ZM200.077 -0.384615L197.994 4.61539L199.84 5.38461L201.923 0.384615L200.077 -0.384615Z" fill="#383D59" mask="url(#path-1-inside-1_392_3898)"/>
<defs>
<linearGradient id="paint0_linear_392_3898" x1="82" y1="0" x2="82" y2="65.7143" gradientUnits="userSpaceOnUse">
<stop stop-color="#383D59" stop-opacity="0"/>
<stop offset="1" stop-color="#383D59"/>
</linearGradient>
</defs>
</svg>
