<svg width="288" height="162" viewBox="0 0 288 162" fill="none" xmlns="http://www.w3.org/2000/svg" xmlns:xlink="http://www.w3.org/1999/xlink">
<mask id="path-1-inside-1_439_854" fill="white">
<path fill-rule="evenodd" clip-rule="evenodd" d="M0 0H116L121.612 6H165.388L171 0H288V53L283 58.7143V103.286L288 109V162H171L165.388 156H121.612L116 162H0V109L5 103.286V58.7143L0 53V0Z"/>
</mask>
<path fill-rule="evenodd" clip-rule="evenodd" d="M0 0H116L121.612 6H165.388L171 0H288V53L283 58.7143V103.286L288 109V162H171L165.388 156H121.612L116 162H0V109L5 103.286V58.7143L0 53V0Z" fill="url(#paint0_linear_439_854)"/>
<path d="M116 0L116.73 -0.683114L116.434 -1H116V0ZM0 0V-1H-1V0H0ZM121.612 6L120.882 6.68311L121.178 7H121.612V6ZM165.388 6V7H165.822L166.118 6.68311L165.388 6ZM171 0V-1H170.566L170.27 -0.683114L171 0ZM288 0H289V-1H288V0ZM288 53L288.753 53.6585L289 53.3757V53H288ZM283 58.7143L282.247 58.0558L282 58.3386V58.7143H283ZM283 103.286H282V103.661L282.247 103.944L283 103.286ZM288 109H289V108.624L288.753 108.341L288 109ZM288 162V163H289V162H288ZM171 162L170.27 162.683L170.566 163H171V162ZM165.388 156L166.118 155.317L165.822 155H165.388V156ZM121.612 156V155H121.178L120.882 155.317L121.612 156ZM116 162V163H116.434L116.73 162.683L116 162ZM0 162H-1V163H0V162ZM0 109L-0.752576 108.341L-1 108.624V109H0ZM5 103.286L5.75258 103.944L6 103.661V103.286H5ZM5 58.7143H6V58.3386L5.75258 58.0558L5 58.7143ZM0 53H-1V53.3757L-0.752577 53.6585L0 53ZM116 -1H0V1H116V-1ZM122.343 5.31689L116.73 -0.683114L115.27 0.683114L120.882 6.68311L122.343 5.31689ZM165.388 5H121.612V7H165.388V5ZM170.27 -0.683114L164.657 5.31689L166.118 6.68311L171.73 0.683114L170.27 -0.683114ZM288 -1H171V1H288V-1ZM289 53V0H287V53H289ZM283.753 59.3728L288.753 53.6585L287.247 52.3415L282.247 58.0558L283.753 59.3728ZM284 103.286V58.7143H282V103.286H284ZM288.753 108.341L283.753 102.627L282.247 103.944L287.247 109.659L288.753 108.341ZM289 162V109H287V162H289ZM171 163H288V161H171V163ZM164.657 156.683L170.27 162.683L171.73 161.317L166.118 155.317L164.657 156.683ZM121.612 157H165.388V155H121.612V157ZM116.73 162.683L122.343 156.683L120.882 155.317L115.27 161.317L116.73 162.683ZM0 163H116V161H0V163ZM-1 109V162H1V109H-1ZM4.24742 102.627L-0.752576 108.341L0.752576 109.659L5.75258 103.944L4.24742 102.627ZM4 58.7143V103.286H6V58.7143H4ZM-0.752577 53.6585L4.24742 59.3728L5.75258 58.0558L0.752577 52.3415L-0.752577 53.6585ZM-1 0V53H1V0H-1Z" fill="url(#paint1_linear_439_854)" mask="url(#path-1-inside-1_439_854)"/>

<rect x="43" y="25" width="202" height="80" fill="url(#pattern0)"/>
<defs>
<pattern id="pattern0" patternContentUnits="objectBoundingBox" width="1" height="1">
<use xlink:href="#image0_439_854" transform="translate(-0.121031 0.0437828) scale(0.00437032 0.0123039)"/>
</pattern>
<linearGradient id="paint0_linear_439_854" x1="144" y1="102" x2="144" y2="162" gradientUnits="userSpaceOnUse">
<stop stop-color="#282B3F" stop-opacity="0"/>
<stop offset="1" stop-color="#282B3F"/>
</linearGradient>
<linearGradient id="paint1_linear_439_854" x1="144" y1="162" x2="144" y2="76.5" gradientUnits="userSpaceOnUse">
<stop stop-color="#555B81" stop-opacity="0.11"/>
<stop offset="1" stop-color="#383D59"/>
</linearGradient>

</defs>
</svg>
