<?xml version="1.0" encoding="UTF-8"?>
<svg id="_Слой_1" data-name="Слой 1" xmlns="http://www.w3.org/2000/svg" viewBox="0 0 108.01 14.15">
  <defs>
    <style>
      .cls-1 {
        fill: #fff;
      }
    </style>
  </defs>
  <path class="cls-1" d="m3.54,11.2h7.17v2.75H0V.2h3.54v11.01Z"/>
  <path class="cls-1" d="m20.93.2h3.54v10.02c0,1.38-.31,2.38-.93,3-.62.62-1.62.93-3,.93h-4.52c-1.38,0-2.38-.31-3-.93-.62-.62-.93-1.62-.93-3V.2h3.54v10.02c0,.79.39,1.18,1.18,1.18h2.95c.79,0,1.18-.39,1.18-1.18V.2Z"/>
  <path class="cls-1" d="m34.5.2c1.48,0,2.6.38,3.37,1.15.77.77,1.15,1.89,1.15,3.37v4.72c0,1.48-.38,2.6-1.15,3.37s-1.89,1.15-3.37,1.15h-7.67V.2h7.67Zm.98,4.52c0-1.18-.59-1.77-1.77-1.77h-3.34v8.26h3.34c1.18,0,1.77-.59,1.77-1.77v-4.72Z"/>
  <path class="cls-1" d="m53.36,10.22c0,1.38-.31,2.38-.93,3-.62.62-1.62.93-3,.93h-4.91c-1.38,0-2.38-.31-3-.93-.62-.62-.93-1.62-.93-3V3.93c0-1.38.31-2.38.93-3,.62-.62,1.62-.93,3-.93h4.91c1.38,0,2.38.31,3,.93.62.62.93,1.62.93,3v6.29Zm-3.54-6.29c0-.79-.39-1.18-1.18-1.18h-3.34c-.79,0-1.18.39-1.18,1.18v6.29c0,.79.39,1.18,1.18,1.18h3.34c.79,0,1.18-.39,1.18-1.18V3.93Z"/>
  <path class="cls-1" d="m55.33.2h7.86c1.28,0,2.23.29,2.83.87s.9,1.47.9,2.66c0,.79-.17,1.43-.51,1.92-.34.49-.76.84-1.26,1.03,1.06.29,1.78,1,2.16,2.12.13.41.2.88.2,1.42,0,1.28-.3,2.23-.9,2.83-.6.6-1.55.9-2.83.9h-8.45V.2Zm8.06,3.93c0-.79-.39-1.18-1.18-1.18h-3.34v2.75h3.34c.79,0,1.18-.39,1.18-1.18v-.39Zm.59,5.5c0-.79-.39-1.18-1.18-1.18h-3.93v2.75h3.93c.79,0,1.18-.39,1.18-1.18v-.39Z"/>
  <path class="cls-1" d="m79.7,2.95l-6.88,8.26h6.88v2.75h-11.2v-2.75l6.88-8.26h-6.88V.2h11.2v2.75Z"/>
  <path class="cls-1" d="m93.66,10.22c0,1.38-.31,2.38-.93,3s-1.62.93-3,.93h-4.91c-1.38,0-2.38-.31-3-.93-.62-.62-.93-1.62-.93-3V3.93c0-1.38.31-2.38.93-3,.62-.62,1.62-.93,3-.93h4.91c1.38,0,2.38.31,3,.93.62.62.93,1.62.93,3v6.29Zm-3.54-6.29c0-.79-.39-1.18-1.18-1.18h-3.34c-.79,0-1.18.39-1.18,1.18v6.29c0,.79.39,1.18,1.18,1.18h3.34c.79,0,1.18-.39,1.18-1.18V3.93Z"/>
  <path class="cls-1" d="m95.62.2h8.25c1.38,0,2.38.31,3,.93.62.62.93,1.62.93,3v1.77c0,1.09-.18,1.93-.54,2.54-.36.6-.93,1-1.72,1.2l2.46,4.32h-3.83l-2.26-4.13h-2.75v4.13h-3.54V.2Zm8.65,3.93c0-.79-.39-1.18-1.18-1.18h-3.93v4.13h3.93c.79,0,1.18-.39,1.18-1.18v-1.77Z"/>
</svg>