<svg width="422" height="60" viewBox="0 0 422 60" fill="none" xmlns="http://www.w3.org/2000/svg">
<mask id="path-1-inside-1_219_2023" fill="white">
<path fill-rule="evenodd" clip-rule="evenodd" d="M0 0H169.972L178.196 6H242.339L250.562 0H422V13L417.604 16.4694V43.5306L422 47V60H250.562L242.339 54H178.196L169.972 60H0V47L4.39583 43.5306V16.4694L0 13V0Z"/>
</mask>
<path fill-rule="evenodd" clip-rule="evenodd" d="M0 0H169.972L178.196 6H242.339L250.562 0H422V13L417.604 16.4694V43.5306L422 47V60H250.562L242.339 54H178.196L169.972 60H0V47L4.39583 43.5306V16.4694L0 13V0Z" fill="#1A1A1A" fill-opacity="0.4"/>
<path d="M169.972 0L170.562 -0.807834L170.298 -1H169.972V0ZM0 0V-1H-1V0H0ZM178.196 6L177.606 6.80783L177.87 7H178.196V6ZM242.339 6V7H242.665L242.928 6.80783L242.339 6ZM250.562 0V-1H250.236L249.973 -0.807834L250.562 0ZM422 0H423V-1H422V0ZM422 13L422.62 13.785L423 13.4847V13H422ZM417.604 16.4694L416.985 15.6844L416.604 15.9847V16.4694H417.604ZM417.604 43.5306H416.604V44.0153L416.985 44.3156L417.604 43.5306ZM422 47H423V46.5153L422.62 46.215L422 47ZM422 60V61H423V60H422ZM250.562 60L249.973 60.8078L250.236 61H250.562V60ZM242.339 54L242.928 53.1922L242.665 53H242.339V54ZM178.196 54V53H177.87L177.606 53.1922L178.196 54ZM169.972 60V61H170.298L170.562 60.8078L169.972 60ZM0 60H-1V61H0V60ZM0 47L-0.619533 46.215L-1 46.5153V47H0ZM4.39583 43.5306L5.01537 44.3156L5.39583 44.0153V43.5306H4.39583ZM4.39583 16.4694H5.39583V15.9847L5.01537 15.6844L4.39583 16.4694ZM0 13H-1V13.4847L-0.619533 13.785L0 13ZM169.972 -1H0V1H169.972V-1ZM178.785 5.19217L170.562 -0.807834L169.383 0.807834L177.606 6.80783L178.785 5.19217ZM242.339 5H178.196V7H242.339V5ZM249.973 -0.807834L241.75 5.19217L242.928 6.80783L251.152 0.807834L249.973 -0.807834ZM422 -1H250.562V1H422V-1ZM423 13V0H421V13H423ZM418.224 17.2544L422.62 13.785L421.38 12.215L416.985 15.6844L418.224 17.2544ZM418.604 43.5306V16.4694H416.604V43.5306H418.604ZM422.62 46.215L418.224 42.7456L416.985 44.3156L421.38 47.785L422.62 46.215ZM423 60V47H421V60H423ZM250.562 61H422V59H250.562V61ZM241.75 54.8078L249.973 60.8078L251.152 59.1922L242.928 53.1922L241.75 54.8078ZM178.196 55H242.339V53H178.196V55ZM170.562 60.8078L178.785 54.8078L177.606 53.1922L169.383 59.1922L170.562 60.8078ZM0 61H169.972V59H0V61ZM-1 47V60H1V47H-1ZM3.7763 42.7456L-0.619533 46.215L0.619533 47.785L5.01537 44.3156L3.7763 42.7456ZM3.39583 16.4694V43.5306H5.39583V16.4694H3.39583ZM-0.619533 13.785L3.7763 17.2544L5.01537 15.6844L0.619533 12.215L-0.619533 13.785ZM-1 0V13H1V0H-1Z" fill="#B62536" mask="url(#path-1-inside-1_219_2023)"/>
</svg>
