<svg width="170" height="40" viewBox="0 0 170 40" fill="none" xmlns="http://www.w3.org/2000/svg">
<mask id="path-1-inside-1_233_613" fill="white">
<path fill-rule="evenodd" clip-rule="evenodd" d="M0 0H68.4722L71.785 4H97.6247L100.938 0H170V8.66667L168.229 10.9796V29.0204L170 31.3333V40H100.938L97.6247 36H71.785L68.4722 40H0V31.3333L1.77083 29.0204V10.9796L0 8.66667V0Z"/>
</mask>
<path fill-rule="evenodd" clip-rule="evenodd" d="M0 0H68.4722L71.785 4H97.6247L100.938 0H170V8.66667L168.229 10.9796V29.0204L170 31.3333V40H100.938L97.6247 36H71.785L68.4722 40H0V31.3333L1.77083 29.0204V10.9796L0 8.66667V0Z" fill="url(#paint0_linear_233_613)"/>
<path d="M68.4722 0L69.2424 -0.637845L68.9425 -1H68.4722V0ZM0 0V-1H-1V0H0ZM71.785 4L71.0148 4.63785L71.3148 5H71.785V4ZM97.6247 4V5H98.0949L98.3949 4.63785L97.6247 4ZM100.938 0V-1H100.467L100.167 -0.637846L100.938 0ZM170 0H171V-1H170V0ZM170 8.66667L170.794 9.27458L171 9.00552V8.66667H170ZM168.229 10.9796L167.435 10.3717L167.229 10.6407V10.9796H168.229ZM168.229 29.0204H167.229V29.3593L167.435 29.6283L168.229 29.0204ZM170 31.3333H171V30.9945L170.794 30.7254L170 31.3333ZM170 40V41H171V40H170ZM100.938 40L100.167 40.6378L100.467 41H100.938V40ZM97.6247 36L98.3949 35.3622L98.0949 35H97.6247V36ZM71.785 36V35H71.3148L71.0148 35.3622L71.785 36ZM68.4722 40V41H68.9425L69.2424 40.6378L68.4722 40ZM0 40H-1V41H0V40ZM0 31.3333L-0.794005 30.7254L-1 30.9945V31.3333H0ZM1.77083 29.0204L2.56484 29.6283L2.77083 29.3593V29.0204H1.77083ZM1.77083 10.9796H2.77083V10.6407L2.56484 10.3717L1.77083 10.9796ZM0 8.66667H-1V9.00552L-0.794006 9.27458L0 8.66667ZM68.4722 -1H0V1H68.4722V-1ZM72.5552 3.36215L69.2424 -0.637845L67.7021 0.637845L71.0148 4.63785L72.5552 3.36215ZM97.6247 3H71.785V5H97.6247V3ZM100.167 -0.637846L96.8546 3.36215L98.3949 4.63785L101.708 0.637846L100.167 -0.637846ZM170 -1H100.938V1H170V-1ZM171 8.66667V0H169V8.66667H171ZM169.023 11.5875L170.794 9.27458L169.206 8.05876L167.435 10.3717L169.023 11.5875ZM169.229 29.0204V10.9796H167.229V29.0204H169.229ZM170.794 30.7254L169.023 28.4125L167.435 29.6283L169.206 31.9412L170.794 30.7254ZM171 40V31.3333H169V40H171ZM100.938 41H170V39H100.938V41ZM96.8546 36.6378L100.167 40.6378L101.708 39.3622L98.3949 35.3622L96.8546 36.6378ZM71.785 37H97.6247V35H71.785V37ZM69.2424 40.6378L72.5552 36.6378L71.0148 35.3622L67.7021 39.3622L69.2424 40.6378ZM0 41H68.4722V39H0V41ZM-1 31.3333V40H1V31.3333H-1ZM0.976828 28.4125L-0.794005 30.7254L0.794005 31.9412L2.56484 29.6283L0.976828 28.4125ZM0.770833 10.9796V29.0204H2.77083V10.9796H0.770833ZM-0.794006 9.27458L0.976828 11.5875L2.56484 10.3717L0.794006 8.05876L-0.794006 9.27458ZM-1 0V8.66667H1V0H-1Z" fill="url(#paint1_linear_233_613)" mask="url(#path-1-inside-1_233_613)"/>
<defs>
<linearGradient id="paint0_linear_233_613" x1="85" y1="0" x2="85" y2="40" gradientUnits="userSpaceOnUse">
<stop stop-color="#EC2C43" stop-opacity="0.23"/>
<stop offset="1" stop-color="#EC2C43" stop-opacity="0.7"/>
</linearGradient>
<linearGradient id="paint1_linear_233_613" x1="85" y1="40" x2="85" y2="-6.19888e-07" gradientUnits="userSpaceOnUse">
<stop stop-color="#FC445A"/>
<stop offset="1" stop-color="#FC445A" stop-opacity="0.1"/>
</linearGradient>
</defs>
</svg>
